<svg xmlns="http://www.w3.org/2000/svg" xmlns:xlink="http://www.w3.org/1999/xlink" width="40" zoomAndPan="magnify" viewBox="0 0 30 30.000001" height="40" preserveAspectRatio="xMidYMid meet" version="1.0"><defs><g/></defs><g fill="#ffffff" fill-opacity="1"><g transform="translate(2.204051, 25.444136)"><g><path d="M 12.65625 -18.984375 L 12.65625 0 L 1.78125 0 L 1.78125 -18.984375 Z M 25.328125 -9.453125 C 25.328125 -7.734375 24.890625 -6.148438 24.015625 -4.703125 C 23.140625 -3.253906 21.976562 -2.109375 20.53125 -1.265625 C 19.082031 -0.421875 17.566406 0 15.984375 0 L 14.265625 0 L 14.265625 -18.984375 L 15.734375 -18.984375 C 17.316406 -18.984375 18.847656 -18.566406 20.328125 -17.734375 C 21.804688 -16.910156 23.007812 -15.765625 23.9375 -14.296875 C 24.863281 -12.835938 25.328125 -11.222656 25.328125 -9.453125 Z M 25.328125 -9.453125 "/></g></g></g><g fill="#ffffff" fill-opacity="1"><g transform="translate(3.787801, 6.193545)"><g><path d="M 2.996094 0 L 2.996094 -3.871094 L 0.0859375 -3.871094 L 0.0859375 -2.984375 L 0.277344 -2.984375 L 0.277344 0 L 1.058594 0 L 1.058594 -2.984375 L 2.027344 -2.984375 L 2.027344 0 Z M 2.996094 0 "/></g></g></g><g fill="#ffffff" fill-opacity="1"><g transform="translate(6.934916, 6.193545)"><g><path d="M 3.058594 0 L 3.058594 -3.871094 L 2.089844 -3.871094 L 2.089844 -0.882812 L 1.121094 -0.882812 L 1.121094 -3.871094 L 0.152344 -3.871094 L 0.152344 0 Z M 3.058594 0 "/></g></g></g><g fill="#ffffff" fill-opacity="1"><g transform="translate(10.145903, 6.193545)"><g><path d="M 3.023438 0 L 3.023438 -1.519531 L 2.59375 -1.945312 L 3.023438 -2.375 L 3.023438 -3.871094 L 2.054688 -3.871094 L 2.054688 -2.375 L 1.085938 -2.375 L 1.085938 -3.871094 L 0.117188 -3.871094 L 0.117188 -2.375 L 0.546875 -1.945312 L 0.117188 -1.519531 L 0.117188 0 L 1.085938 0 L 1.085938 -1.519531 L 2.054688 -1.519531 L 2.054688 0 Z M 3.023438 0 "/></g></g></g><g fill="#ffffff" fill-opacity="1"><g transform="translate(13.287214, 6.193545)"><g><path d="M 3.046875 0 L 3.046875 -0.882812 L 1.121094 -0.882812 L 1.121094 -1.519531 L 3.046875 -1.519531 L 3.046875 -2.375 L 1.121094 -2.375 L 1.121094 -2.984375 L 3.046875 -2.984375 L 3.046875 -3.871094 L 0.152344 -3.871094 L 0.152344 0 Z M 3.046875 0 "/></g></g></g><g fill="#ffffff" fill-opacity="1"><g transform="translate(16.486588, 6.193545)"><g><path d="M 3.058594 0 L 3.058594 -2.375 L 1.121094 -2.375 L 1.121094 -2.984375 L 3.058594 -2.984375 L 3.058594 -3.871094 L 0.152344 -3.871094 L 0.152344 -1.519531 L 2.089844 -1.519531 L 2.089844 -0.882812 L 0.152344 -0.882812 L 0.152344 0 Z M 3.058594 0 "/></g></g></g></svg>