<svg xmlns="http://www.w3.org/2000/svg" xmlns:xlink="http://www.w3.org/1999/xlink" width="40" zoomAndPan="magnify" viewBox="0 0 30 30.000001" height="40" preserveAspectRatio="xMidYMid meet" version="1.0"><defs><g/></defs><g fill="#004aad" fill-opacity="1"><g transform="translate(5.206697, 16.962621)"><g><path d="M 9.6875 -14.53125 L 9.6875 0 L 1.375 0 L 1.375 -14.53125 Z M 19.40625 -7.234375 C 19.40625 -5.921875 19.066406 -4.707031 18.390625 -3.59375 C 17.722656 -2.488281 16.832031 -1.613281 15.71875 -0.96875 C 14.613281 -0.320312 13.453125 0 12.234375 0 L 10.921875 0 L 10.921875 -14.53125 L 12.046875 -14.53125 C 13.265625 -14.53125 14.4375 -14.210938 15.5625 -13.578125 C 16.695312 -12.953125 17.617188 -12.078125 18.328125 -10.953125 C 19.046875 -9.828125 19.40625 -8.585938 19.40625 -7.234375 Z M 19.40625 -7.234375 "/></g></g></g><g fill="#ffffff" fill-opacity="1"><g transform="translate(6.786495, 22.634923)"><g><path d="M 3.09375 -3.796875 L 3.09375 -1 L 1.84375 -3.796875 Z M 3.09375 0 L 1.734375 0 L 0.171875 -3.546875 L 0.171875 -3.796875 L 1.578125 -3.796875 L 3.09375 -0.296875 Z M 0.171875 0 L 0.171875 -2.78125 L 1.40625 0 Z M 0.171875 0 "/></g></g></g><g fill="#ffffff" fill-opacity="1"><g transform="translate(10.620161, 22.634923)"><g><path d="M 1.5 0.046875 C 1.007812 0.0351562 0.664062 -0.0664062 0.46875 -0.265625 C 0.269531 -0.472656 0.171875 -0.832031 0.171875 -1.34375 L 0.171875 -3.796875 L 1.5 -3.796875 Z M 1.78125 0.046875 L 1.78125 -3.796875 L 3.109375 -3.796875 L 3.109375 -1.34375 C 3.109375 -0.832031 3.007812 -0.472656 2.8125 -0.265625 C 2.613281 -0.0664062 2.269531 0.0351562 1.78125 0.046875 Z M 1.78125 0.046875 "/></g></g></g><g fill="#ffffff" fill-opacity="1"><g transform="translate(14.479465, 22.634923)"><g><path d="M -0.140625 0 L 0.578125 -1.546875 L 1.203125 0 Z M 3.109375 -3.796875 L 2.390625 -2.25 L 1.765625 -3.796875 Z M 1.453125 -3.796875 L 2.984375 0 L 1.515625 0 L -0.015625 -3.796875 Z M 1.453125 -3.796875 "/></g></g></g><g fill="#ffffff" fill-opacity="1"><g transform="translate(18.043927, 22.634923)"><g><path d="M 1.5 0 L 0.171875 0 L 0.171875 -3.796875 L 1.5 -3.796875 Z M 1.609375 -3.796875 L 2.921875 -3.796875 L 2.921875 -2.328125 Z M 2.421875 -1.1875 L 1.59375 -1.96875 L 2.421875 -2.75 Z M 1.609375 0 L 2.9375 -1.703125 L 2.9375 0 Z M 1.609375 0 "/></g></g></g><g fill="#ffffff" fill-opacity="1"><g transform="translate(21.708379, 22.634923)"><g><path d="M 2.59375 -2.1875 L 1.359375 -3.796875 L 2.59375 -3.796875 Z M 0.140625 0 L 0.140625 -1.734375 L 1.484375 0 Z M 1.21875 -3.78125 C 1.175781 -3.738281 1.144531 -3.695312 1.125 -3.65625 C 1.113281 -3.625 1.109375 -3.582031 1.109375 -3.53125 C 1.109375 -3.488281 1.117188 -3.4375 1.140625 -3.375 C 1.171875 -3.320312 1.222656 -3.253906 1.296875 -3.171875 L 2.4375 -1.6875 C 2.550781 -1.539062 2.628906 -1.40625 2.671875 -1.28125 C 2.722656 -1.164062 2.75 -1.03125 2.75 -0.875 C 2.75 -0.632812 2.664062 -0.425781 2.5 -0.25 C 2.332031 -0.0820312 2.125 0 1.875 0 C 1.832031 0 1.789062 0 1.75 0 C 1.71875 -0.0078125 1.675781 -0.015625 1.625 -0.015625 C 1.65625 -0.0546875 1.679688 -0.09375 1.703125 -0.125 C 1.722656 -0.15625 1.734375 -0.191406 1.734375 -0.234375 C 1.734375 -0.296875 1.71875 -0.351562 1.6875 -0.40625 C 1.664062 -0.457031 1.617188 -0.53125 1.546875 -0.625 L 0.40625 -2.09375 C 0.289062 -2.25 0.207031 -2.382812 0.15625 -2.5 C 0.113281 -2.625 0.09375 -2.757812 0.09375 -2.90625 C 0.09375 -3.15625 0.175781 -3.363281 0.34375 -3.53125 C 0.519531 -3.707031 0.738281 -3.796875 1 -3.796875 C 1.050781 -3.796875 1.117188 -3.789062 1.203125 -3.78125 Z M 1.21875 -3.78125 "/></g></g></g></svg>