<svg xmlns="http://www.w3.org/2000/svg" xmlns:xlink="http://www.w3.org/1999/xlink" width="1080" zoomAndPan="magnify" viewBox="0 0 810 809.999993" height="1080" preserveAspectRatio="xMidYMid meet" version="1.0"><defs><clipPath id="45b1ba8cb8"><path d="M 93.960938 81 L 715.710938 81 L 715.710938 729 L 93.960938 729 Z M 93.960938 81 " clip-rule="nonzero"/></clipPath></defs><path fill="#ffffff" d="M 278.042969 385.957031 L 347.871094 385.957031 C 354.882812 385.957031 360.566406 380.273438 360.566406 373.261719 C 360.566406 366.25 354.882812 360.566406 347.871094 360.566406 L 278.042969 360.566406 C 271.03125 360.566406 265.347656 366.25 265.347656 373.261719 C 265.347656 380.273438 271.03125 385.957031 278.042969 385.957031 Z M 278.042969 385.957031 " fill-opacity="1" fill-rule="nonzero"/><path fill="#ffffff" d="M 239.957031 373.261719 C 239.957031 366.25 234.273438 360.566406 227.261719 360.566406 L 157.4375 360.566406 C 150.425781 360.566406 144.742188 366.25 144.742188 373.261719 C 144.742188 380.273438 150.425781 385.957031 157.4375 385.957031 L 227.261719 385.957031 C 234.273438 385.957031 239.957031 380.273438 239.957031 373.261719 Z M 239.957031 373.261719 " fill-opacity="1" fill-rule="nonzero"/><g clip-path="url(#45b1ba8cb8)"><path fill="#ffffff" d="M 716.039062 208.21875 C 716.039062 138.214844 659.085938 81.265625 589.082031 81.265625 C 581.976562 81.265625 283.363281 81.265625 271.695312 81.265625 C 243.695312 81.265625 220.914062 104.046875 220.914062 132.046875 L 220.914062 259.003906 L 106.65625 259.003906 C 99.644531 259.003906 93.960938 264.6875 93.960938 271.699219 L 93.960938 424.042969 C 93.960938 431.054688 99.644531 436.738281 106.65625 436.738281 L 220.914062 436.738281 L 220.914062 677.953125 C 220.914062 705.953125 243.695312 728.734375 271.695312 728.734375 L 563.691406 728.734375 C 591.695312 728.734375 614.472656 705.953125 614.472656 677.953125 L 614.472656 332.621094 C 672.351562 320.828125 716.039062 269.53125 716.039062 208.21875 Z M 271.695312 106.65625 L 512.996094 106.65625 C 488.597656 124.980469 470.988281 151.875 464.683594 182.828125 L 246.304688 182.828125 L 246.304688 132.046875 C 246.304688 118.046875 257.695312 106.65625 271.695312 106.65625 Z M 385.957031 284.394531 L 385.957031 309.785156 L 119.351562 309.785156 L 119.351562 284.394531 Z M 119.351562 335.175781 L 385.957031 335.175781 L 385.957031 411.347656 L 119.351562 411.347656 Z M 563.691406 703.34375 L 271.695312 703.34375 C 257.695312 703.34375 246.304688 691.953125 246.304688 677.953125 L 246.304688 627.171875 L 589.082031 627.171875 L 589.082031 677.953125 C 589.082031 691.953125 577.691406 703.34375 563.691406 703.34375 Z M 589.082031 601.78125 L 246.304688 601.78125 L 246.304688 436.738281 L 398.652344 436.738281 C 405.660156 436.738281 411.347656 431.054688 411.347656 424.042969 L 411.347656 271.699219 C 411.347656 264.6875 405.660156 259.003906 398.652344 259.003906 L 246.304688 259.003906 L 246.304688 208.21875 L 462.128906 208.21875 C 462.128906 278.222656 519.078125 335.175781 589.082031 335.175781 Z M 589.082031 309.785156 C 533.082031 309.785156 487.519531 264.222656 487.519531 208.21875 C 487.519531 152.21875 533.082031 106.65625 589.082031 106.65625 C 645.085938 106.65625 690.648438 152.21875 690.648438 208.21875 C 690.648438 264.222656 645.085938 309.785156 589.082031 309.785156 Z M 589.082031 309.785156 " fill-opacity="1" fill-rule="nonzero"/></g><path fill="#ffffff" d="M 627.714844 165.917969 L 570.039062 223.589844 L 550.453125 204.003906 C 545.492188 199.046875 537.457031 199.046875 532.496094 204.003906 C 527.539062 208.960938 527.539062 217 532.496094 221.957031 L 561.0625 250.523438 C 566.023438 255.480469 574.058594 255.480469 579.015625 250.523438 L 645.667969 183.871094 C 650.625 178.914062 650.625 170.875 645.667969 165.917969 C 640.710938 160.960938 632.671875 160.960938 627.714844 165.917969 Z M 627.714844 165.917969 " fill-opacity="1" fill-rule="nonzero"/><path fill="#ffffff" d="M 449.433594 652.5625 L 385.957031 652.5625 C 378.945312 652.5625 373.261719 658.246094 373.261719 665.257812 C 373.261719 672.269531 378.945312 677.953125 385.957031 677.953125 L 449.433594 677.953125 C 456.445312 677.953125 462.128906 672.269531 462.128906 665.257812 C 462.128906 658.246094 456.445312 652.5625 449.433594 652.5625 Z M 449.433594 652.5625 " fill-opacity="1" fill-rule="nonzero"/><path fill="#ffffff" d="M 373.261719 157.4375 L 436.738281 157.4375 C 443.75 157.4375 449.433594 151.753906 449.433594 144.742188 C 449.433594 137.730469 443.75 132.046875 436.738281 132.046875 L 373.261719 132.046875 C 366.25 132.046875 360.566406 137.730469 360.566406 144.742188 C 360.566406 151.753906 366.25 157.4375 373.261719 157.4375 Z M 373.261719 157.4375 " fill-opacity="1" fill-rule="nonzero"/></svg>