<svg xmlns="http://www.w3.org/2000/svg" xmlns:xlink="http://www.w3.org/1999/xlink" width="1080" zoomAndPan="magnify" viewBox="0 0 810 809.999993" height="1080" preserveAspectRatio="xMidYMid meet" version="1.0"><path fill="#ffffff" d="M 199.074219 356.808594 C 210.863281 368.589844 228.949219 350.742188 217.042969 338.839844 L 175.207031 297 L 217.042969 255.160156 C 222.007812 250.199219 222.007812 242.152344 217.042969 237.191406 C 212.082031 232.230469 204.039062 232.230469 199.074219 237.191406 L 148.25 288.015625 C 143.289062 292.976562 143.289062 301.019531 148.25 305.984375 Z M 199.074219 356.808594 " fill-opacity="1" fill-rule="nonzero"/><path fill="#ffffff" d="M 344.101562 356.808594 L 394.925781 305.984375 C 399.886719 301.023438 399.886719 292.976562 394.925781 288.015625 L 344.101562 237.191406 C 339.140625 232.230469 331.097656 232.230469 326.132812 237.191406 C 321.171875 242.152344 321.171875 250.199219 326.132812 255.160156 L 367.972656 297 L 326.132812 338.839844 C 314.222656 350.75 332.347656 368.558594 344.101562 356.808594 Z M 344.101562 356.808594 " fill-opacity="1" fill-rule="nonzero"/><path fill="#ffffff" d="M 258.890625 360.53125 C 264.585938 360.53125 269.765625 356.679688 271.207031 350.90625 L 296.621094 249.257812 C 298.324219 242.449219 294.183594 235.550781 287.375 233.851562 C 280.566406 232.148438 273.671875 236.289062 271.96875 243.09375 L 246.554688 344.742188 C 244.554688 352.75 250.613281 360.53125 258.890625 360.53125 Z M 258.890625 360.53125 " fill-opacity="1" fill-rule="nonzero"/><path fill="#ffffff" d="M 398.648438 436.765625 C 391.628906 436.765625 385.941406 442.453125 385.941406 449.46875 C 385.941406 456.488281 391.628906 462.175781 398.648438 462.175781 L 652.765625 462.175781 C 659.78125 462.175781 665.46875 456.488281 665.46875 449.46875 C 665.46875 442.453125 659.78125 436.765625 652.765625 436.765625 L 640.058594 436.765625 L 640.058594 335.117188 C 640.058594 328.101562 634.367188 322.410156 627.351562 322.410156 C 620.335938 322.410156 614.648438 328.101562 614.648438 335.117188 L 614.648438 436.765625 L 589.234375 436.765625 L 589.234375 309.707031 C 589.234375 302.6875 583.546875 297 576.53125 297 C 569.511719 297 563.824219 302.6875 563.824219 309.707031 L 563.824219 436.765625 L 538.410156 436.765625 L 538.410156 385.941406 C 538.410156 378.921875 532.722656 373.234375 525.707031 373.234375 C 518.691406 373.234375 513 378.921875 513 385.941406 L 513 436.765625 L 487.589844 436.765625 L 487.589844 360.53125 C 487.589844 353.511719 481.898438 347.824219 474.882812 347.824219 C 467.867188 347.824219 462.175781 353.511719 462.175781 360.53125 L 462.175781 436.765625 L 436.765625 436.765625 L 436.765625 398.648438 C 436.765625 391.628906 431.074219 385.941406 424.058594 385.941406 C 417.042969 385.941406 411.351562 391.628906 411.351562 398.648438 L 411.351562 436.765625 Z M 398.648438 436.765625 " fill-opacity="1" fill-rule="nonzero"/><path fill="#ffffff" d="M 424.058594 169.941406 L 652.765625 169.941406 C 659.78125 169.941406 665.46875 164.25 665.46875 157.234375 C 665.46875 150.21875 659.78125 144.53125 652.765625 144.53125 L 424.058594 144.53125 C 417.042969 144.53125 411.351562 150.21875 411.351562 157.234375 C 411.351562 164.25 417.042969 169.941406 424.058594 169.941406 Z M 424.058594 169.941406 " fill-opacity="1" fill-rule="nonzero"/><path fill="#ffffff" d="M 424.058594 220.765625 L 576.53125 220.765625 C 583.546875 220.765625 589.234375 215.074219 589.234375 208.058594 C 589.234375 201.042969 583.546875 195.351562 576.53125 195.351562 L 424.058594 195.351562 C 417.042969 195.351562 411.351562 201.042969 411.351562 208.058594 C 411.351562 215.074219 417.042969 220.765625 424.058594 220.765625 Z M 424.058594 220.765625 " fill-opacity="1" fill-rule="nonzero"/><path fill="#ffffff" d="M 665.46875 563.824219 C 665.46875 564.65625 665.390625 565.484375 665.226562 566.300781 C 665.0625 567.121094 664.824219 567.914062 664.503906 568.6875 C 664.183594 569.457031 663.792969 570.1875 663.328125 570.882812 C 662.867188 571.578125 662.339844 572.21875 661.75 572.808594 C 661.160156 573.398438 660.515625 573.925781 659.824219 574.386719 C 659.128906 574.851562 658.398438 575.242188 657.625 575.5625 C 656.855469 575.882812 656.0625 576.121094 655.242188 576.285156 C 654.425781 576.449219 653.597656 576.53125 652.765625 576.53125 C 651.929688 576.53125 651.105469 576.449219 650.285156 576.285156 C 649.46875 576.121094 648.671875 575.882812 647.902344 575.5625 C 647.132812 575.242188 646.398438 574.851562 645.707031 574.386719 C 645.011719 573.925781 644.371094 573.398438 643.78125 572.808594 C 643.191406 572.21875 642.664062 571.578125 642.199219 570.882812 C 641.738281 570.1875 641.34375 569.457031 641.027344 568.6875 C 640.707031 567.914062 640.464844 567.121094 640.304688 566.300781 C 640.140625 565.484375 640.058594 564.65625 640.058594 563.824219 C 640.058594 562.988281 640.140625 562.164062 640.304688 561.34375 C 640.464844 560.527344 640.707031 559.730469 641.027344 558.960938 C 641.34375 558.191406 641.738281 557.457031 642.199219 556.765625 C 642.664062 556.070312 643.191406 555.429688 643.78125 554.839844 C 644.371094 554.25 645.011719 553.722656 645.707031 553.257812 C 646.398438 552.796875 647.132812 552.402344 647.902344 552.085938 C 648.671875 551.765625 649.46875 551.523438 650.285156 551.363281 C 651.105469 551.199219 651.929688 551.117188 652.765625 551.117188 C 653.597656 551.117188 654.425781 551.199219 655.242188 551.363281 C 656.0625 551.523438 656.855469 551.765625 657.625 552.085938 C 658.398438 552.402344 659.128906 552.796875 659.824219 553.257812 C 660.515625 553.722656 661.160156 554.25 661.75 554.839844 C 662.339844 555.429688 662.867188 556.070312 663.328125 556.765625 C 663.792969 557.457031 664.183594 558.191406 664.503906 558.960938 C 664.824219 559.730469 665.0625 560.527344 665.226562 561.34375 C 665.390625 562.164062 665.46875 562.988281 665.46875 563.824219 Z M 665.46875 563.824219 " fill-opacity="1" fill-rule="nonzero"/><path fill="#ffffff" d="M 601.941406 551.117188 L 589.234375 551.117188 C 582.21875 551.117188 576.53125 556.808594 576.53125 563.824219 C 576.53125 570.839844 582.21875 576.53125 589.234375 576.53125 L 601.941406 576.53125 C 608.957031 576.53125 614.648438 570.839844 614.648438 563.824219 C 614.648438 556.808594 608.957031 551.117188 601.941406 551.117188 Z M 601.941406 551.117188 " fill-opacity="1" fill-rule="nonzero"/><path fill="#ffffff" d="M 538.410156 551.117188 L 525.707031 551.117188 C 518.691406 551.117188 513 556.808594 513 563.824219 C 513 570.839844 518.691406 576.53125 525.707031 576.53125 L 538.410156 576.53125 C 545.429688 576.53125 551.117188 570.839844 551.117188 563.824219 C 551.117188 556.808594 545.429688 551.117188 538.410156 551.117188 Z M 538.410156 551.117188 " fill-opacity="1" fill-rule="nonzero"/><path fill="#ffffff" d="M 659.21875 81 L 150.78125 81 C 112.304688 81 81 112.304688 81 150.78125 L 81 557.574219 C 81 596.050781 112.304688 627.351562 150.78125 627.351562 L 341.46875 627.351562 L 341.46875 652.765625 L 328.765625 652.765625 C 293.734375 652.765625 265.234375 681.265625 265.234375 716.292969 C 265.234375 723.308594 270.921875 729 277.941406 729 L 532.058594 729 C 539.074219 729 544.765625 723.308594 544.765625 716.292969 C 544.765625 681.265625 516.265625 652.765625 481.234375 652.765625 L 468.53125 652.765625 L 468.53125 627.351562 L 659.21875 627.351562 C 697.695312 627.351562 729 596.050781 729 557.574219 L 729 150.78125 C 729 112.304688 697.695312 81 659.21875 81 Z M 150.78125 106.410156 L 659.21875 106.410156 C 683.683594 106.410156 703.589844 126.316406 703.589844 150.78125 L 703.589844 500.292969 L 106.410156 500.292969 L 106.410156 150.78125 C 106.410156 126.316406 126.316406 106.410156 150.78125 106.410156 Z M 517.175781 703.589844 L 292.824219 703.589844 C 298.070312 688.796875 312.199219 678.175781 328.765625 678.175781 L 481.234375 678.175781 C 497.800781 678.175781 511.929688 688.796875 517.175781 703.589844 Z M 443.117188 652.765625 L 366.882812 652.765625 L 366.882812 627.351562 L 443.117188 627.351562 Z M 659.21875 601.941406 L 150.78125 601.941406 C 126.316406 601.941406 106.410156 582.039062 106.410156 557.570312 L 106.410156 525.707031 L 703.589844 525.707031 L 703.589844 557.570312 C 703.589844 582.039062 683.683594 601.941406 659.21875 601.941406 Z M 659.21875 601.941406 " fill-opacity="1" fill-rule="nonzero"/></svg>