<svg xmlns="http://www.w3.org/2000/svg" xmlns:xlink="http://www.w3.org/1999/xlink" width="1080" zoomAndPan="magnify" viewBox="0 0 810 809.999993" height="1080" preserveAspectRatio="xMidYMid meet" version="1.0"><defs><clipPath id="58e651c284"><path d="M 162 181 L 736.867188 181 L 736.867188 704 L 162 704 Z M 162 181 " clip-rule="nonzero"/></clipPath></defs><g clip-path="url(#58e651c284)"><path fill="#ffffff" d="M 505.71875 584.121094 L 393.738281 584.121094 C 387.765625 584.121094 382.914062 579.25 382.914062 573.261719 C 382.914062 567.289062 387.765625 562.421875 393.738281 562.421875 L 505.71875 562.421875 C 511.710938 562.421875 516.558594 567.289062 516.558594 573.261719 C 516.558594 579.25 511.710938 584.121094 505.71875 584.121094 Z M 718.273438 181.371094 L 215.660156 181.371094 L 247.558594 213.875 L 704.375 213.875 L 704.375 531.746094 L 195.097656 531.746094 L 195.097656 320.902344 L 162.578125 282.734375 L 162.578125 596.222656 C 162.578125 606.457031 170.929688 614.8125 181.167969 614.8125 L 431.664062 614.8125 L 431.664062 664.699219 L 401.417969 664.699219 C 400.574219 664.699219 399.746094 664.976562 399.054688 665.441406 L 355.640625 695.84375 C 352.359375 698.136719 354 703.300781 358.003906 703.300781 L 541.453125 703.300781 C 545.472656 703.300781 547.097656 698.136719 543.816406 695.84375 L 500.402344 665.441406 C 499.710938 664.976562 498.902344 664.699219 498.054688 664.699219 L 467.792969 664.699219 L 467.792969 614.8125 L 718.273438 614.8125 C 728.542969 614.8125 736.878906 606.457031 736.878906 596.222656 L 736.878906 199.980469 C 736.878906 189.707031 728.542969 181.371094 718.273438 181.371094 " fill-opacity="1" fill-rule="nonzero"/></g><path fill="#ffffff" d="M 667.710938 265.039062 C 667.710938 254.613281 659.25 246.136719 648.824219 246.136719 C 638.398438 246.136719 629.941406 254.613281 629.941406 265.039062 C 629.941406 275.484375 638.398438 283.941406 648.824219 283.941406 C 659.25 283.941406 667.710938 275.484375 667.710938 265.039062 " fill-opacity="1" fill-rule="nonzero"/><path fill="#ffffff" d="M 611.761719 265.039062 C 611.761719 254.613281 603.304688 246.136719 592.878906 246.136719 C 582.449219 246.136719 573.992188 254.613281 573.992188 265.039062 C 573.992188 275.484375 582.449219 283.941406 592.878906 283.941406 C 603.304688 283.941406 611.761719 275.484375 611.761719 265.039062 " fill-opacity="1" fill-rule="nonzero"/><path fill="#ffffff" d="M 536.929688 246.136719 C 526.484375 246.136719 518.027344 254.613281 518.027344 265.039062 C 518.027344 275.484375 526.484375 283.941406 536.929688 283.941406 C 547.355469 283.941406 555.816406 275.484375 555.816406 265.039062 C 555.816406 254.613281 547.355469 246.136719 536.929688 246.136719 " fill-opacity="1" fill-rule="nonzero"/><path fill="#ffffff" d="M 535.480469 320.261719 L 535.480469 384.203125 C 535.480469 388.226562 538.726562 391.472656 542.730469 391.472656 L 660.441406 391.472656 C 664.464844 391.472656 667.710938 388.226562 667.710938 384.203125 L 667.710938 320.261719 C 667.710938 316.257812 664.464844 312.996094 660.441406 312.996094 L 542.730469 312.996094 C 538.726562 312.996094 535.480469 316.257812 535.480469 320.261719 " fill-opacity="1" fill-rule="nonzero"/><path fill="#ffffff" d="M 491.148438 312.996094 L 408.308594 312.996094 C 404.300781 312.996094 401.039062 316.257812 401.039062 320.261719 L 401.039062 384.203125 C 401.039062 388.226562 404.300781 391.472656 408.308594 391.472656 L 491.148438 391.472656 C 495.15625 391.472656 498.417969 388.226562 498.417969 384.203125 L 498.417969 320.261719 C 498.417969 316.257812 495.15625 312.996094 491.148438 312.996094 " fill-opacity="1" fill-rule="nonzero"/><path fill="#ffffff" d="M 407.789062 427.910156 C 409.292969 432.625 409.617188 437.5625 408.859375 442.324219 L 663.878906 442.324219 C 666 442.324219 667.726562 440.617188 667.726562 438.492188 L 667.726562 421.472656 C 667.726562 419.351562 666 417.625 663.878906 417.625 L 404.542969 417.625 C 405.578125 420.921875 406.648438 424.339844 407.789062 427.910156 " fill-opacity="1" fill-rule="nonzero"/><path fill="#ffffff" d="M 235.597656 442.324219 L 309.308594 442.324219 C 298.085938 436.871094 296.203125 434.660156 293.648438 431.640625 C 290.214844 427.566406 287.296875 422.871094 284.933594 417.625 L 235.597656 417.625 C 233.457031 417.625 231.746094 419.351562 231.746094 421.472656 L 231.746094 438.492188 C 231.746094 440.617188 233.457031 442.324219 235.597656 442.324219 " fill-opacity="1" fill-rule="nonzero"/><path fill="#ffffff" d="M 231.746094 472.34375 L 231.746094 489.367188 C 231.746094 491.488281 233.457031 493.199219 235.597656 493.199219 L 663.878906 493.199219 C 666 493.199219 667.726562 491.488281 667.726562 489.367188 L 667.726562 472.34375 C 667.726562 470.222656 666 468.496094 663.878906 468.496094 L 235.597656 468.496094 C 233.457031 468.496094 231.746094 470.222656 231.746094 472.34375 " fill-opacity="1" fill-rule="nonzero"/><path fill="#ffffff" d="M 274.230469 278.402344 C 230.519531 233.863281 187.261719 189.777344 144.070312 145.773438 C 134.644531 135.96875 111.101562 112.164062 110.945312 112.007812 C 106.402344 107.382812 100.726562 106.917969 94.925781 108.195312 C 89.882812 109.300781 85.722656 111.542969 82.53125 114.496094 C 79.300781 117.414062 76.695312 121.347656 75.140625 126.269531 C 73.363281 131.949219 73.328125 137.644531 77.523438 142.582031 C 77.664062 142.738281 99.292969 168.300781 108.199219 178.574219 C 148.195312 225.511719 188.261719 272.53125 228.726562 320.023438 C 236.511719 312.875 266.410156 285.53125 274.230469 278.402344 " fill-opacity="1" fill-rule="nonzero"/><path fill="#ffffff" d="M 258.367188 306.746094 C 251.027344 313.460938 243.640625 320.210938 236.011719 327.203125 C 255.121094 344.015625 293.441406 377.746094 293.441406 377.746094 L 325.964844 348.003906 C 325.964844 348.003906 295.773438 306.832031 280.71875 286.289062 C 273.089844 293.28125 265.71875 300.03125 258.367188 306.746094 " fill-opacity="1" fill-rule="nonzero"/><path fill="#ffffff" d="M 364.910156 377.886719 C 364.0625 374.847656 360.679688 370.6875 357.296875 368.113281 C 354.8125 366.214844 352.046875 364.871094 349.148438 363.730469 C 343.710938 361.625 337.789062 360.347656 331.957031 361.226562 C 325.722656 362.160156 320.027344 365.527344 315.417969 369.824219 C 311.949219 373.050781 308.980469 376.917969 307.21875 381.320312 C 305.234375 386.308594 304.886719 391.867188 305.785156 397.167969 C 306.304688 400.242188 307.21875 403.242188 308.445312 406.109375 C 309.738281 409.164062 311.464844 412.203125 313.605469 414.722656 C 316.351562 417.96875 356.175781 434.351562 375.800781 442.34375 C 379.960938 444.035156 384.226562 440.117188 382.863281 435.816406 C 377.476562 418.816406 367.378906 386.828125 364.910156 377.886719 " fill-opacity="1" fill-rule="nonzero"/></svg>