<svg xmlns="http://www.w3.org/2000/svg" xmlns:xlink="http://www.w3.org/1999/xlink" width="1080" zoomAndPan="magnify" viewBox="0 0 810 809.999993" height="1080" preserveAspectRatio="xMidYMid meet" version="1.0"><path fill="#ffffff" d="M 576.171875 162.660156 C 568.957031 162.238281 563.453125 156.042969 563.878906 148.828125 C 564.300781 141.613281 570.496094 136.109375 577.710938 136.535156 L 659.847656 141.613281 C 667.0625 142.039062 672.570312 148.230469 672.144531 155.445312 C 672.117188 155.914062 672.0625 156.375 671.988281 156.828125 L 658.257812 237.972656 C 657.066406 245.101562 650.324219 249.917969 643.195312 248.730469 C 636.0625 247.542969 631.246094 240.796875 632.4375 233.667969 L 640.789062 184.324219 L 466.394531 307.25 C 461.984375 310.347656 455.925781 310.507812 451.285156 307.207031 L 359.894531 242.332031 L 236.042969 340.871094 C 230.382812 345.367188 222.148438 344.429688 217.652344 338.769531 C 213.152344 333.109375 214.09375 324.875 219.75 320.378906 L 351.292969 215.722656 C 356.125 211.878906 362.832031 212.003906 367.492188 215.648438 L 458.882812 280.523438 L 622.058594 165.496094 Z M 301.589844 81 C 179.761719 81 81 179.761719 81 301.589844 C 81 423.417969 179.761719 522.179688 301.589844 522.179688 C 351.386719 522.179688 397.328125 505.675781 434.25 477.84375 L 487.132812 530.726562 C 480.882812 541.542969 482.371094 555.691406 491.597656 564.921875 L 644.671875 717.996094 C 655.675781 729 673.679688 729 684.683594 717.996094 L 717.996094 684.683594 C 729 673.679688 729 655.675781 717.996094 644.671875 L 564.921875 491.597656 C 555.691406 482.371094 541.542969 480.882812 530.726562 487.132812 L 477.84375 434.25 C 505.675781 397.328125 522.183594 351.390625 522.183594 301.589844 C 522.183594 301.074219 522.164062 300.558594 522.164062 300.042969 C 499.457031 316.046875 476.75 332.054688 454.042969 348.0625 C 434.152344 413.394531 373.429688 460.9375 301.589844 460.9375 C 213.585938 460.9375 142.246094 389.597656 142.246094 301.589844 C 142.246094 213.585938 213.585938 142.246094 301.589844 142.246094 C 368.328125 142.246094 425.472656 183.277344 449.199219 241.488281 L 458.9375 248.398438 L 504.945312 215.964844 C 471.515625 136.664062 393.054688 81 301.589844 81 Z M 301.589844 81 " fill-opacity="1" fill-rule="evenodd"/></svg>